<svg xmlns="http://www.w3.org/2000/svg" width="1220" height="260" viewBox="0 0 1220 260" role="img" aria-labelledby="title desc">
      <title id="title">Module 11 architecture sketch</title>
      <desc id="desc">A simple flow diagram for Advanced RAG.</desc>
      <defs><marker id="arrow" markerWidth="8" markerHeight="8" refX="7" refY="4" orient="auto"><path d="M0,0 L8,4 L0,8 z" fill="#2563eb"/></marker></defs>
      <rect width="1220" height="260" fill="#eff6ff" rx="24"/>
      <text x="20" y="36" font-size="28" font-family="Inter, Arial" fill="#0f172a">Module 11: Advanced RAG</text>
      <text x="20" y="58" font-size="16" font-family="Inter, Arial" fill="#334155">Use this as a talking diagram for lessons, videos, and workshops.</text>
      <rect x="20" y="70" width="220" height="90" rx="18" fill="#0f172a" opacity="0.95"/><text x="36" y="110" fill="white" font-size="20" font-family="Inter, Arial">Advanced RAG</text><line x1="244" y1="115" x2="256" y2="115" stroke="#2563eb" stroke-width="4" marker-end="url(#arrow)"/><rect x="260" y="70" width="220" height="90" rx="18" fill="#1d4ed8" opacity="0.95"/><text x="276" y="110" fill="white" font-size="20" font-family="Inter, Arial">Agentic RAG</text><line x1="484" y1="115" x2="496" y2="115" stroke="#2563eb" stroke-width="4" marker-end="url(#arrow)"/><rect x="500" y="70" width="220" height="90" rx="18" fill="#1d4ed8" opacity="0.95"/><text x="516" y="110" fill="white" font-size="20" font-family="Inter, Arial">Graph RAG</text><line x1="724" y1="115" x2="736" y2="115" stroke="#2563eb" stroke-width="4" marker-end="url(#arrow)"/><rect x="740" y="70" width="220" height="90" rx="18" fill="#1d4ed8" opacity="0.95"/><text x="756" y="110" fill="white" font-size="20" font-family="Inter, Arial">Knowledge Graph RAG</text><line x1="964" y1="115" x2="976" y2="115" stroke="#2563eb" stroke-width="4" marker-end="url(#arrow)"/><rect x="980" y="70" width="220" height="90" rx="18" fill="#1d4ed8" opacity="0.95"/><text x="996" y="110" fill="white" font-size="20" font-family="Inter, Arial">Multi-modal RAG</text>
    </svg>
